<?xml version="1.0" encoding="UTF-8" standalone="no"?>
<!-- width="6.86618in" height="4.73459in" -->
<svg
    xmlns:dc="http://purl.org/dc/elements/1.1/"
    xmlns:cc="http://web.resource.org/cc/"
    xmlns:rdf="http://www.w3.org/1999/02/22-rdf-syntax-ns#"
    xmlns:svg="http://www.w3.org/2000/svg"
    xmlns="http://www.w3.org/2000/svg"
    xmlns:sodipodi="http://sodipodi.sourceforge.net/DTD/sodipodi-0.dtd"
    xmlns:inkscape="http://www.inkscape.org/namespaces/inkscape"
    xml:space="preserve"
    width="500px"
    height="500px"
    style="shape-rendering:geometricPrecision; text-rendering:geometricPrecision; image-rendering:optimizeQuality"
    viewBox="-4202 0 6866 4734"
    id="svg2"
    
    onload="startup(evt)"
    
    sodipodi:version="0.32"
    inkscape:version="0.45"
    sodipodi:docname="arborator.svg"
    sodipodi:docbase="/home/kim/Desktop"
    inkscape:output_extension="org.inkscape.output.svg.inkscape"><sodipodi:namedview
										inkscape:window-height="694"
										inkscape:window-width="1012"
										inkscape:pageshadow="2"
										inkscape:pageopacity="0.0"
										guidetolerance="10.0"
										gridtolerance="10.0"
										objecttolerance="10.0"
										borderopacity="1.0"
										bordercolor="#666666"
										pagecolor="#ffffff"
										id="base"
										inkscape:zoom="0.964"
										inkscape:cx="250"
										inkscape:cy="249.48133"
										inkscape:window-x="6"
										inkscape:window-y="22"
										inkscape:current-layer="svg2" />
										

<script>
<![CDATA[

function startup(evt){

	blade=document.getElementById("path15");
	//ptiplace=document.getElementById("path11");
	step=20;
	size=80;
	animate(0);
	//blade.setAttribute("style","fill:#000000;")
	//+"stroke-width:"+((x%50)+100)+";");
	//ptiplace.setAttribute("style","stroke-dasharray:"+pdar+";");
	//var pdar = x+",62,"+(62-x)+",0";
}

function animate(x){
	
	if (x<size) var dar = x+","+size+","+(size-x)+",0";
	else var dar = 0 +"," + (x%size)+","+size+","+(size-x%size);
	blade.setAttribute("style","stroke-dasharray:"+dar+";")
	x=(x+step)%(2*size);
	window.setTimeout("animate("+x+")",40);
	
}
//]]>
</script>




	<defs
	     id="defs4">
		<style
		      type="text/css"
		      id="style6">
			
			.str0 {stroke:#7B4178;stroke-width:3}
			.str1 {stroke:#DD137B;stroke-width:56;stroke-dasharray:56 56}
			.str2 {stroke:#DD137B;stroke-width:125;stroke-dasharray:125 125}
			.fil2 {fill:none}
			.fil1 {fill:#654B6D}
			.fil0 {fill:#9AB086}
			.fil3 {fill:#DD137B}
			
		</style>
		
		
		
		
		
		
		
		
		
		
		
		
		
		
		
		
	</defs>
	<path
	     style="fill:#654b6d"
	     id="path13"
	     d="M -143,1363 L -3191,2392 C -3460,2196 -3628,1946 -3628,1711 C -3628,1005 -2339,430 -758,430 C 822,430 2111,1005 2111,1711 C 2111,2417 822,2992 -758,2992 C -1005,2992 -1263,2972 -1498,2947 L -143,1363 z "
	     class="fil1" /><path
				 style="fill:#dd137b;stroke:#dd137b;stroke-width:125;stroke-dasharray:125, 125"
				 id="path15"
				 d="M -1041,725 C -871,633 -559,587 -223,1547 C 112,2506 -332,2355 -626,2469 C -920,2583 -983,2759 -1218,1928 C -1453,1096 -1372,904 -1041,725 z "
				 class="fil3 str2" /><path
							  style="fill:#654b6d"
							  id="path17"
							  d="M -93,1313 L 1669,1620 C 2462,1758 872,2942 -708,2942 C -955,2942 -1213,2922 -1448,2897 L -93,1313 z "
							  class="fil1" /><g
									   id="g7121"
									   transform="matrix(1.0287277,0,0,0.9985667,166.73825,0.6895801)"><path
										class="fil1 str0"
										d="M -1952,3668 L -3221.8483,4275.4799 L -3470,4277 L -1605,3486 L -1952,3668 z "
										id="path9"
										style="fill:#654b6d;stroke:#7b4178;stroke-width:3"
										sodipodi:nodetypes="ccccc" /><path
										class="fil2 str1"
										d="M -2339,3389 C -2215,3341 -2045,3528 -1960,3799 L -2276,4176 C -2343,4206 -2330,4207 -2413,3947 C -2496,3688 -2462,3437 -2339,3389 z "
										id="path11"
										style="fill:none;stroke:#dd137b;stroke-width:56;stroke-dasharray:56, 56" /><path
										class="fil1 str0"
										d="M -1806,3589 L -1608.1517,3487.7802 L -2229.0895,4275.2601 L -2483,4276 L -1806,3589 z "
										id="path19"
										style="fill:#654b6d;stroke:#7b4178;stroke-width:3"
										sodipodi:nodetypes="ccccc" /></g><path
										style="fill:#654b6d"
										id="path21"
										d="M -1653,4274 L -1746,4274 L -1703,4091 L -1806,4091 L -1940,4274 L -2023,4274 L -1682,3808 L -1471,3808 C -1424,3808 -1397,3818 -1389,3838 C -1380,3860 -1395,3897 -1432,3948 C -1458,3983 -1484,4011 -1512,4032 C -1543,4055 -1575,4071 -1609,4079 L -1653,4274 z M -1517,3950 C -1501,3927 -1496,3911 -1502,3903 C -1508,3895 -1526,3890 -1553,3890 L -1658,3890 L -1746,4010 L -1641,4010 C -1613,4010 -1593,4008 -1580,4003 C -1558,3995 -1538,3977 -1517,3950 z "
										class="fil1" /><path
										style="fill:#654b6d"
										id="path23"
										d="M -1142,4145 C -1172,4186 -1201,4216 -1230,4235 C -1270,4261 -1317,4274 -1373,4274 L -1597,4274 L -1255,3808 L -1045,3808 C -997,3808 -968,3815 -956,3829 C -940,3848 -951,3884 -988,3936 C -1006,3960 -1026,3980 -1047,3996 C -1068,4012 -1095,4027 -1128,4041 C -1114,4053 -1108,4067 -1110,4083 C -1112,4098 -1123,4119 -1142,4145 z M -1087,3946 C -1059,3909 -1065,3890 -1104,3890 L -1231,3890 L -1311,4000 L -1186,4000 C -1167,4000 -1150,3996 -1136,3989 C -1118,3980 -1101,3966 -1087,3946 z M -1228,4138 C -1200,4100 -1205,4081 -1244,4081 L -1371,4081 L -1453,4193 L -1328,4193 C -1309,4193 -1292,4190 -1277,4182 C -1259,4173 -1243,4158 -1228,4138 z "
										class="fil1" /><path
										style="fill:#654b6d"
										id="path25"
										d="M -615,4041 C -679,4129 -747,4194 -819,4234 C -877,4268 -937,4284 -996,4284 C -1027,4284 -1051,4280 -1068,4272 C -1095,4260 -1107,4237 -1104,4205 C -1100,4165 -1072,4110 -1021,4040 C -972,3973 -923,3921 -874,3882 C -833,3851 -790,3828 -746,3814 C -713,3804 -678,3799 -642,3799 C -584,3799 -548,3812 -534,3837 C -523,3858 -526,3889 -545,3930 C -559,3959 -582,3996 -615,4041 z M -707,4042 C -662,3981 -641,3937 -643,3910 C -645,3888 -663,3877 -698,3877 C -733,3877 -771,3891 -811,3918 C -851,3945 -891,3986 -930,4040 C -968,4091 -990,4128 -996,4152 C -1006,4189 -987,4207 -940,4207 C -899,4207 -858,4192 -818,4161 C -783,4135 -746,4095 -707,4042 z "
										class="fil1" /><path
										style="fill:#654b6d"
										id="path27"
										d="M -357,4274 L -450,4274 L -406,4091 L -509,4091 L -643,4274 L -727,4274 L -385,3808 L -175,3808 C -128,3808 -100,3818 -92,3838 C -84,3860 -98,3897 -135,3948 C -161,3983 -187,4011 -215,4032 C -246,4055 -278,4071 -312,4079 L -357,4274 z M -221,3950 C -204,3927 -199,3911 -205,3903 C -212,3895 -229,3890 -256,3890 L -362,3890 L -450,4010 L -344,4010 C -316,4010 -296,4008 -283,4003 C -262,3995 -241,3977 -221,3950 z "
										class="fil1" /><path
										style="fill:#654b6d"
										id="path29"
										d="M 80,4274 L -13,4274 L 31,4162 L -148,4162 L -266,4274 L -354,4274 L 158,3808 L 247,3808 L 80,4274 z M 63,4081 L 136,3896 L -61,4081 L 63,4081 z "
										class="fil1" /><path
										style="fill:#654b6d"
										id="path31"
										d="M 624,3889 L 492,3889 L 210,4274 L 121,4274 L 404,3889 L 274,3889 L 332,3810 L 682,3810 L 624,3889 z "
										class="fil1" /><path
										style="fill:#654b6d"
										id="path33"
										d="M 937,4041 C 872,4129 804,4194 733,4234 C 674,4268 615,4284 556,4284 C 524,4284 500,4280 484,4272 C 457,4260 445,4237 448,4205 C 452,4165 479,4110 531,4040 C 580,3973 629,3921 678,3882 C 719,3851 761,3828 806,3814 C 839,3804 874,3799 910,3799 C 968,3799 1004,3812 1018,3837 C 1029,3858 1026,3889 1007,3930 C 993,3959 970,3996 937,4041 z M 845,4042 C 890,3981 911,3937 909,3910 C 907,3888 889,3877 853,3877 C 818,3877 781,3891 741,3918 C 701,3945 661,3986 621,4040 C 584,4091 562,4128 556,4152 C 546,4189 565,4207 612,4207 C 653,4207 694,4192 734,4161 C 769,4135 806,4095 845,4042 z "
										class="fil1" /><path
										style="fill:#654b6d"
										id="path35"
										d="M 1195,4274 L 1102,4274 L 1145,4091 L 1043,4091 L 909,4274 L 825,4274 L 1167,3808 L 1377,3808 C 1424,3808 1452,3818 1459,3838 C 1468,3860 1454,3897 1416,3948 C 1391,3983 1364,4011 1337,4032 C 1306,4055 1273,4071 1240,4079 L 1195,4274 z M 1331,3950 C 1348,3927 1353,3911 1346,3903 C 1340,3895 1323,3890 1295,3890 L 1190,3890 L 1102,4010 L 1208,4010 C 1236,4010 1256,4008 1269,4003 C 1290,3995 1311,3977 1331,3950 z "
										class="fil1" />
</svg>